# xmcd
#
# Track frame offsets: 
#        150
#        15245
#        26697
#        44290
#        64662
#        83447
#        97472
#        114837
#
# Disc length: 1718 seconds
#
# Revision: 0
# Processed by: cddbd v1.5.2PL0 Copyright (c) Steve Scherf et al.
# Submitted via: ExactAudioCopy v0.99pb4
#
DISCID=5606b408
DTITLE=Virgil Balmer - Son of the Soil
DYEAR=1995
DGENRE=Country
TTITLE0=Just Here for the Music
TTITLE1=I Ain't Never
TTITLE2=Dedicated to Doing You Right
TTITLE3=Son of the Soil
TTITLE4=Good Old Nebraska Home
TTITLE5=New Way to Say Goodbye
TTITLE6=Women
TTITLE7=Heartbreak Hotel
EXTD=
EXTT0=
EXTT1=
EXTT2=
EXTT3=
EXTT4=
EXTT5=
EXTT6=
EXTT7=
PLAYORDER=
